# xmcd
# 
# Track frame offsets:
#   150
#   14696
#   34117
#   47223
#   63227
#   79915
#   94653
#   109001
#   123907
#   141054
#   158525
#   174643
#   191583
#   210221
#   225760
#   243291
# 
# Disc length: 3484 seconds
# 
# Revision: 3
# Processed by: cddbd v1.5.2PL0 Copyright (c) Steve Scherf et al.
# Submitted via: Synapstar 1.0 
# 
DISCID=c30d9a10
DTITLE=Various Artist - Chartbuster 5134-03
DYEAR=2009
DGENRE=Country
TTITLE0=Steel Magnolia - Keep On Loving You
TTITLE1=Brooks and Dunn - Indian Summer
TTITLE2=Rodney Atkins - 15 Minutes
TTITLE3=Darryl Worley - Sounds Like Life To Me
TTITLE4=Bomshel - Fight Like A Girl
TTITLE5=Joe Nichols - Believers
TTITLE6=Mark Chesnutt - She Never Got Me Over You
TTITLE7=Michelle Branch - Sooner Or Later
TTITLE8=Jimmy Wayne - I'll Be That
TTITLE9=James Otto - Since You Brought It Up
TTITLE10=Jack Ingram - Barefoot And Crazy
TTITLE11=Megan Mullins - Long Past Gone
TTITLE12=Love And Theft - Runaway
TTITLE13=Jo Dee Messina - Shine
TTITLE14=Lady Antebellum - I Was Here
TTITLE15=Rascal Flatts - Unstoppable
EXTD=
EXTT0=
EXTT1=
EXTT2=
EXTT3=
EXTT4=
EXTT5=
EXTT6=
EXTT7=
EXTT8=
EXTT9=
EXTT10=
EXTT11=
EXTT12=
EXTT13=
EXTT14=
EXTT15=
PLAYORDER=
